<svg xmlns="http://www.w3.org/2000/svg" width="16" height="16"><g fill="none" fill-rule="evenodd"><rect width="16" height="16" rx=".533"/><path fill="#5181B8" d="M6 12v1.495c0 .279.232.505.5.505.276 0 .5-.214.5-.505V12h2v1.495c0 .279.232.505.5.505.276 0 .5-.214.5-.505V12h1a1 1 0 0 0 1-.99V6H4v5.01c0 .546.444.99 1 .99h1zM2.5 6c-.276 0-.5.215-.5.49v3.02a.5.5 0 0 0 .5.49c.276 0 .5-.215.5-.49V6.49A.5.5 0 0 0 2.5 6zm7.144-3.778C11.918 2.916 12 5 12 5H4s.082-2.084 2.356-2.778l-.32-.688a.375.375 0 0 1 .679-.317l.393.842C7.38 2.02 7.678 2 8 2c.323 0 .62.02.892.059l.393-.842a.375.375 0 0 1 .68.317l-.321.688zM13.5 6a.5.5 0 0 1 .5.49v3.02c0 .275-.224.49-.5.49a.5.5 0 0 1-.5-.49V6.49c0-.275.224-.49.5-.49zm-7-2c.268 0 .5-.224.5-.5 0-.268-.224-.5-.5-.5-.268 0-.5.224-.5.5 0 .268.224.5.5.5zm3 0c.268 0 .5-.224.5-.5 0-.268-.224-.5-.5-.5-.268 0-.5.224-.5.5 0 .268.224.5.5.5z"/></g></svg>