<svg height="16" width="16" xmlns="http://www.w3.org/2000/svg"><g fill="none" fill-rule="evenodd"><rect height="16" rx=".533" width="16"/><path d="m11.761 7.085c-.017-1.689 1.381-2.499 1.444-2.54-.786-1.145-2.01-1.302-2.446-1.32-1.04-.105-2.031.611-2.56.611-.527 0-1.343-.596-2.206-.58-1.135.017-2.182.658-2.766 1.671-1.18 2.04-.302 5.063.847 6.718.562.81 1.231 1.72 2.11 1.687.847-.033 1.168-.546 2.191-.546 1.024 0 1.312.546 2.208.53.911-.017 1.489-.826 2.046-1.638.645-.94.91-1.85.927-1.896-.02-.01-1.777-.68-1.795-2.697zm-1.684-4.956c.467-.564.782-1.348.696-2.129-.672.027-1.487.446-1.97 1.01-.432.5-.811 1.297-.71 2.063.751.058 1.517-.38 1.984-.944z" fill="#5181b8"/></g></svg>