<svg height="16" viewBox="0 0 16 16" width="16" xmlns="http://www.w3.org/2000/svg"><g fill="none" fill-rule="evenodd"><rect height="15" rx="7.5" stroke="#b4bfcc" width="15" x=".5" y=".5"/><path d="m5.67342187 6.34423828h1.11181641c.04833984-.6875.52636719-1.12255859 1.26757813-1.12255859.73583984 0 1.21386718.4296875 1.21386718 1.02050781 0 .54248047-.23095703.84863281-.88085937 1.24072266-.73583985.44042968-1.06347656.92382812-1.0366211 1.69726562l.0053711.40820313h1.1118164v-.32226563c0-.54248047.19873047-.82714844.89160157-1.23535156.70898441-.42431641 1.12792971-1.00976563 1.12792971-1.83691406 0-1.16552735-.95605471-2.00878907-2.37402346-2.00878907-1.55761719 0-2.39013672.92382813-2.43847657 2.15917969zm2.30419922 5.77929692c.49414063 0 .82714844-.3276368.82714844-.8164063 0-.4995117-.33300781-.8271484-.82714844-.8271484-.49414062 0-.83251953.3276367-.83251953.8271484 0 .4887695.33837891.8164063.83251953.8164063z" fill="#828a99"/></g></svg>